# xmcd
#
# Track frame offsets:
#   150
#   20073
#   41110
#   69636
#   97096
#   111302
#   127898
#   144130
#   157840
#   177910
#   207599
#   215430
#   230923
#   247609
#   269613
#   288101
#   310674
#   325889
#
# Disc length: 4677 seconds
#
# Revision: 0
# Processed by: cddbd v1.4PL0 Copyright (c) Steve Scherf et al.
# Submitted via: Click'N Design 3D 4.8
#
DISCID=08124312
DTITLE=Prayer - Madonna
DYEAR=2004
DGENRE=Blues
TTITLE0=1) Turtle Blues- Janis
TTITLE1=2) Volcano- Damien Rice
TTITLE2=3) Tiny Dancer- Elton John
TTITLE3=4) New York State...- Billy Joel
TTITLE4=5) A 1000 Beautiful Things-Annie Lennox
TTITLE5=6) In These Shoes- Kristy MacColl
TTITLE6=When I Grow Up- Michelle Shocked
TTITLE7=8) She's Got a Way- Billy Joel
TTITLE8=9) Moulin Rouge
TTITLE9=10) Silence- Sarah Macloughlin
TTITLE10=11) A little less conversation- Elvis
TTITLE11=12) Anchorage- Michelle Shocked
TTITLE12=13) I Wanna Be Around- Dinah Washington
TTITLE13=14) Maria- Blondie
TTITLE14=15) Be Careful- Patty Griffin
TTITLE15=16) Is you My Baby- Dinah Washington
TTITLE16=17) Black Coffee- KD Lang
TTITLE17=18) Calling All Angels
EXTD=
EXTT0=
EXTT1=
EXTT2=
EXTT3=
EXTT4=
EXTT5=
EXTT6=
EXTT7=
EXTT8=
EXTT9=
EXTT10=
EXTT11=
EXTT12=
EXTT13=
EXTT14=
EXTT15=
EXTT16=
EXTT17=
PLAYORDER=
